<mxfile modified="2023-02-17T03:17:44.449Z" host="app.diagrams.net" agent="5.0 (Windows NT 10.0; Win64; x64) AppleWebKit/537.36 (KHTML, like Gecko) Chrome/110.0.0.0 Safari/537.36" etag="X5b2n2WLvJqxO4RgORUs" version="20.8.20" type="github" pages="2">
  <diagram id="f106602c-feb2-e66a-4537-3a34d633f6aa" name="Page-1">
    <mxGraphModel dx="1050" dy="485" grid="1" gridSize="10" guides="1" tooltips="1" connect="1" arrows="1" fold="1" page="1" pageScale="1" pageWidth="1169" pageHeight="827" background="none" math="0" shadow="0">
      <root>
        <mxCell id="0" />
        <mxCell id="1" parent="0" />
        <mxCell id="14" value="&lt;b style=&quot;border-color: var(--border-color);&quot;&gt;盛友集成平台&lt;/b&gt;" style="fillColor=#F6F6F6;strokeColor=none;shadow=0;gradientColor=none;fontSize=14;align=left;spacing=10;fontColor=#717171;9E9E9E;verticalAlign=top;spacingTop=-4;fontStyle=0;spacingLeft=40;html=1;" parent="1" vertex="1">
          <mxGeometry x="585" y="100" width="410" height="425" as="geometry" />
        </mxCell>
        <mxCell id="15" value="" style="shape=mxgraph.gcp2.google_cloud_platform;fillColor=#F6F6F6;strokeColor=none;shadow=0;gradientColor=none;" parent="14" vertex="1">
          <mxGeometry width="23" height="20" relative="1" as="geometry">
            <mxPoint x="20" y="10" as="offset" />
          </mxGeometry>
        </mxCell>
        <mxCell id="kObLQWP68G7C41kQOy8n-521" value="产成品" style="sketch=0;html=1;verticalAlign=top;labelPosition=center;verticalLabelPosition=bottom;align=center;spacingTop=-6;fontSize=11;fontStyle=1;fontColor=#999999;shape=image;aspect=fixed;imageAspect=0;image=data:image/svg+xml,PHN2ZyB4bWxucz0iaHR0cDovL3d3dy53My5vcmcvMjAwMC9zdmciIHhtbG5zOnY9Imh0dHBzOi8vdmVjdGEuaW8vbmFubyIgd2lkdGg9IjM2Mi4yMjI0NzgzNzUzNTMxNSIgaGVpZ2h0PSIzNzcuMzU5NDg0NzI1NTkyNSIgdmlld0JveD0iNjcuMzQ3OTk5NTcyNzUzOSAxMDguNjg4MDAzNTQwMDM5MDYgOTUuODM4MDA1MDY1OTE3OTcgOTkuODQzMDAyMzE5MzM1OTQiPiYjeGE7PHN0eWxlIHR5cGU9InRleHQvY3NzIj4mI3hhOwkuc3Qwe2ZpbGw6IzY2OWRmNjt9JiN4YTsJLnN0MXtmaWxsOiNhZWNiZmE7fSYjeGE7CS5zdDJ7ZmlsbDojNDI4NWY0O30mI3hhOzwvc3R5bGU+JiN4YTsJPHBhdGggY2xhc3M9InN0MCIgZD0iTTk2LjE5OSAxNzMuODAxdjI1Ljk5bDE5LjE4MSA4Ljc0di0yNS45MjZ6bTQuNzcxIDguNjYybDkuNjczIDQuNDA4djEyLjk4NWwtOS42NzMtNC4zNzV6bS00Ljc3MS0zOC45Njl2MjEuNjg2bDE5LjE4MSA4LjczMnYtMjEuNjg0bC00LjczNy0yLjA5NXYxNS4wNmwtOS42NzMtNC4zOTV2LTE1LjE3ek02Ny4zNDggMTMwLjMydjU2LjU1bDE5LjExNCA4Ljc4M3YtNTYuNjU4bC00LjczNC0yLjEyN3Y0OS45MDhsLTkuNTUzLTQuMzgxVjEzMi40OXoiLz4mI3hhOwk8cGF0aCBjbGFzcz0ic3QxIiBkPSJNOTYuMTE2IDExNy4zMTZsMTkuMjY0LTguNjI4IDQ3LjgwNiAyMS43NjMtMTguNzkgOC42MzJ6bTE5LjI2NCAzNC45MTJsLTE5LjE4MS04Ljc0NiAxOS4xODEtOC43MzkgMTkuMjE1IDguNzU5ek04Ni40NjIgMTM5LjA2bC0xOS4xMTQtOC43NDYgMTkuMTE0LTguNzM5IDE5LjM2MiA4Ljc1OXoiLz4mI3hhOwk8cGF0aCBjbGFzcz0ic3QyIiBkPSJNMTQ0LjM5NiAxNjAuNjEzdi0yMS41M2wxOC43OS04LjYzMnYyMS42NTd6TTExNS4zOCAxODIuNTNsNDcuODA2LTIxLjcxMnYyNS45MDRsLTQ3LjgwNiAyMS42MjZ6bTAtOC42MTh2LTIxLjY4NGwxOS4yMTUtOC43MzJ2MjEuNTQ1eiIvPiYjeGE7PC9zdmc+;" vertex="1" parent="14">
          <mxGeometry x="55" y="49" width="40" height="42" as="geometry" />
        </mxCell>
        <mxCell id="kObLQWP68G7C41kQOy8n-523" value="发货单" style="sketch=0;html=1;verticalAlign=top;labelPosition=center;verticalLabelPosition=bottom;align=center;spacingTop=-6;fontSize=11;fontStyle=1;fontColor=#999999;shape=image;aspect=fixed;imageAspect=0;image=data:image/svg+xml,PHN2ZyB4bWxucz0iaHR0cDovL3d3dy53My5vcmcvMjAwMC9zdmciIGlkPSJzdmc0Njc2OCIgdmVyc2lvbj0iMS4xIiB2aWV3Qm94PSIwIDAgMjA5LjI1MjM1IDI3Ni4yMDM1NSIgaGVpZ2h0PSIyNzYuMjAzNTVtbSIgd2lkdGg9IjIwOS4yNTIzNW1tIj4mI3hhOyAgJiN4YTsgIDxkZWZzIGlkPSJkZWZzNDY3NjUiLz4mI3hhOyAgPGcgdHJhbnNmb3JtPSJ0cmFuc2xhdGUoLTEuNTA3ODU5NSwtOS43NzkzNzgzKSIgaWQ9ImxheWVyMSI+JiN4YTsgICAgPHBhdGggZD0ibSAxNjMuNTk1NTcsMTE2LjE0MjAyIDQ3LjE2NDY1LDI4LjAyNDMyIHYgNDQuNjM2NjcgYyAwLDcuOTYwNyAtMy40MjYyMSwxMi40MDk0NiAtOS4yNDUxNSwxNi4zMjM0NCBMIDY3LjE5MzQ2OSwyODQuMDUxNiBjIC01LjUxNDE1MywzLjU4NCAtOS4zNzkzMjUsMS45MjYyMSAtOS4zNzkzMjUsLTIuODgzMDkgViAyMzMuNTczODggTCAxNjMuNTk1NTcsMTcwLjc0NjExIFogTSA2Mi42MjEzNTIsODcuNjg0MzM5IFYgMzEuOTI0NjEgTCA5NS4zNDA0NjUsMTMuMDAwOTczIGMgNy41MTQzMTUsLTQuNjAxODcxNyAxNS4wOTIwNzUsLTQuMDk5MzAzNiAyMS42MDg0NDUsMC4zOTczOTkgbCA4MS4zODgxNSw0Ny4xMjgzOCBjIDkuODcwMDUsNS42MDQwNTkgMTIuMzU2MzksMTAuNTc3OTI4IDEyLjQyMzE2LDIwLjA3OTI3OCBWIDEyNS40MjIyIEwgMTA1LjU5Njc4LDYzLjEyNjk0NSBaIE0gNDIuOTAzMjA4LDIyNC4wNTAxIDEzLjI4OTg4MywyMDYuODU5OTIgQyA2LjE0MjIzOTgsMjAyLjQ2OTU1IDEuNTE2NzgwMSwxOTkuNzUwMTcgMS41MTY3ODAxLDE4Ny42NDczNyBWIDgzLjYzOTU5MiBDIDEuMzk4NjksNzQuMDk4NDc5IDIuMzAzMDU2OSw2OC41MDEzMjkgMTMuNDM0MzM4LDYxLjk3MTMwNCBMIDQ3LjIzNjg2Nyw0Mi4xODA5MzMgViAxNzEuMTc5NDggbCA0My4wNDc2NjYsMjQuNzAxODQgeiIgc3R5bGU9Im9wYWNpdHk6MTtmaWxsOiM1OTg2ZjI7ZmlsbC1vcGFjaXR5OjE7c3Ryb2tlOm5vbmU7c3Ryb2tlLXdpZHRoOjAuMjY0NTgzcHg7c3Ryb2tlLWxpbmVjYXA6YnV0dDtzdHJva2UtbGluZWpvaW46bWl0ZXI7c3Ryb2tlLW9wYWNpdHk6MSIgaWQ9InBhdGg0NjkwNiIvPiYjeGE7ICA8L2c+JiN4YTs8L3N2Zz4=;" vertex="1" parent="14">
          <mxGeometry x="142" y="49" width="32" height="42" as="geometry" />
        </mxCell>
        <mxCell id="kObLQWP68G7C41kQOy8n-524" value="发货计划" style="sketch=0;html=1;verticalAlign=top;labelPosition=center;verticalLabelPosition=bottom;align=center;spacingTop=-6;fontSize=11;fontStyle=1;fontColor=#999999;shape=image;aspect=fixed;imageAspect=0;image=data:image/svg+xml,PHN2ZyB4bWxucz0iaHR0cDovL3d3dy53My5vcmcvMjAwMC9zdmciIHhtbG5zOnY9Imh0dHBzOi8vdmVjdGEuaW8vbmFubyIgd2lkdGg9IjE5LjkyMTQ0MjAzMTg2MDM1IiBoZWlnaHQ9IjE5Ljc3ODMyMDMxMjUiIHZpZXdCb3g9Ii0wLjAwMDQ0MTU1NzE3NDc4MTMzNzQgMC4yNSAxOS45MjE0NDIwMzE4NjAzNSAxOS43NzgzMjAzMTI1Ij4mI3hhOwk8c3R5bGUgdHlwZT0idGV4dC9jc3MiPiYjeGE7CS5zdDB7ZmlsbDojNDI4NWY0O30mI3hhOwkuc3Qxe2ZpbGw6I2FlY2JmYTt9JiN4YTsJLnN0MntmaWxsLXJ1bGU6ZXZlbm9kZH0mI3hhOwkuc3Qze2ZpbGw6IzY2OWRmNjt9JiN4YTsJPC9zdHlsZT4mI3hhOwk8cGF0aCBjbGFzcz0ic3QwIiBkPSJNNC40NjEgMTYuMjRhMyAzIDAgMSAxIDAtNiAzIDMgMCAxIDEgMCA2em0zLjYzLS40YTQuNDMgNC40MyAwIDAgMC01LjA0OS02LjcxNEE0LjQzIDQuNDMgMCAwIDAgLjAxMSAxMy4zMmE0LjkxIDQuOTEgMCAwIDAgMCAuNjcgMy40MyAzLjQzIDAgMCAwIC4wOS40NGwuMDYuMjFhNC41OSA0LjU5IDAgMCAwIC4zNC43OSA0LjI0IDQuMjQgMCAwIDAgLjc2IDFsLjE1LjE1LjMzLjI3YTQuMTYgNC4xNiAwIDAgMCAuNzMuNDQgNC40NCA0LjQ0IDAgMCAwIDQuNTQtLjI5bDIuOTMgMi45M2EuMzMuMzMgMCAwIDAgLjQ3IDBsLjY2LS42NWEuMzMuMzMgMCAwIDAgMC0uNDd6Ii8+JiN4YTsJPHBhdGggY2xhc3M9InN0MSIgZD0iTTkuODExIDE0LjU4YTUuNDEgNS40MSAwIDAgMCAuMi0xLjUxIDUuNTMgNS41MyAwIDAgMC01LjYxLTUuNDIgNS44MiA1LjgyIDAgMCAwLTEuOTIuMzVWMy44M2EuNjIuNjIgMCAwIDEgLjYyLS42MmgxNi4xOWEuNjMuNjMgMCAwIDEgLjYzLjYyVjE0YS42My42MyAwIDAgMS0uNjMuNjN6Ii8+JiN4YTsJPGcgY2xhc3M9InN0MiI+JiN4YTsJCTxwYXRoIGNsYXNzPSJzdDMiIGQ9Ik0xMy41OTEgMy4yMVYxLjczaC00LjQ0djEuNDhoLTEuNDlWLjg3YS42My42MyAwIDAgMSAuNjMtLjYyaDYuMTZhLjYyLjYyIDAgMCAxIC42Mi42MnYyLjM0eiIvPiYjeGE7CQk8cGF0aCBjbGFzcz0ic3QwIiBkPSJNMTUuMDcxIDMuMjFoLTEuNDhsMS40OC0uNDd6bS01LjkzIDBoLTEuNDlsMS40OS0uNTR6Ii8+JiN4YTsJPC9nPiYjeGE7PC9zdmc+;" vertex="1" parent="14">
          <mxGeometry x="215" y="49" width="42" height="42" as="geometry" />
        </mxCell>
        <mxCell id="kObLQWP68G7C41kQOy8n-525" value="调拨单" style="sketch=0;html=1;verticalAlign=top;labelPosition=center;verticalLabelPosition=bottom;align=center;spacingTop=-6;fontSize=11;fontStyle=1;fontColor=#999999;shape=image;aspect=fixed;imageAspect=0;image=data:image/svg+xml,PHN2ZyB4bWxucz0iaHR0cDovL3d3dy53My5vcmcvMjAwMC9zdmciIHhtbG5zOnY9Imh0dHBzOi8vdmVjdGEuaW8vbmFubyIgd2lkdGg9IjM3OS4yNTY5MTM2MjgxNTg1NCIgaGVpZ2h0PSIyNzEuOTY3NzQwMjY0MjUzMyIgdmlld0JveD0iLTAuMTQ0OTk5OTk1ODI3Njc0ODcgMC4wMTEwMDAwMDA4NzE3MTc5MyAxMDAuMzQ0OTkzNTkxMzA4NiA3MS45NTgwMDAxODMxMDU0NyI+JiN4YTs8c3R5bGUgdHlwZT0idGV4dC9jc3MiPiYjeGE7CS5zdDB7ZmlsbDojNDI4NWY0O30mI3hhOwkuc3Qxe2ZpbGw6IzY2OWRmNjt9JiN4YTs8L3N0eWxlPiYjeGE7CTxwYXRoIGNsYXNzPSJzdDAiIGQ9Ik0xMDAuMiAzOS40ODNMNzYuNDI4IDcxLjk2OUgyOC44NjVsLTQuNzgzLTYuNTgyIDQuNzgzLTYuNDIyaDM4LjAxM0w5MC42MyAyNi40MzJ6TS0uMTQ1IDMyLjQ5OEwyMy42MjcuMDExSDcxLjE5bDQuNzgzIDYuNTgyLTQuNzgzIDYuNDIySDMzLjE3N0w5LjQyNSA0NS41NDl6Ii8+JiN4YTsJPHBhdGggY2xhc3M9InN0MSIgZD0iTTMzLjAzNCA0My4xMjJsMTAuMDctMTQuMDIzaDI0LjAybC05Ljc4OSAxNC4wMjN6Ii8+JiN4YTs8L3N2Zz4=;" vertex="1" parent="14">
          <mxGeometry x="312" y="53" width="42" height="34" as="geometry" />
        </mxCell>
        <mxCell id="kObLQWP68G7C41kQOy8n-530" value="退货单" style="sketch=0;html=1;verticalAlign=top;labelPosition=center;verticalLabelPosition=bottom;align=center;spacingTop=-6;fontSize=11;fontStyle=1;fontColor=#999999;shape=image;aspect=fixed;imageAspect=0;image=data:image/svg+xml,PHN2ZyB4bWxucz0iaHR0cDovL3d3dy53My5vcmcvMjAwMC9zdmciIHhtbG5zOnY9Imh0dHBzOi8vdmVjdGEuaW8vbmFubyIgd2lkdGg9IjIwIiBoZWlnaHQ9IjIwIiB2aWV3Qm94PSIwIDAgMjAgMjAiPiYjeGE7CTxzdHlsZSB0eXBlPSJ0ZXh0L2NzcyI+JiN4YTsJLnN0MHtmaWxsOiM0Mjg1ZjQ7fSYjeGE7CS5zdDF7ZmlsbDojNjY5ZGY2O30mI3hhOwk8L3N0eWxlPiYjeGE7CTxwYXRoIGNsYXNzPSJzdDEiIGQ9Ik0wIDE1bDUgNWg1bC0yLjUtMi44Nkg2LjI1bC0zLjM5LTMuMzl2LTcuNWwzLjM5LTMuMzlINy41TDEwIDBINUwwIDV6TTEzLjc1IDIuODZsMy4zOSAzLjM5djcuNWwtMy4zOSAzLjM5SDEwTDEyLjUgMjBIMTVsNS01VjVsLTUtNWgtMi41TDEwIDIuODZ6IiBmaWxsLXJ1bGU9ImV2ZW5vZGQiLz4mI3hhOwk8cGF0aCBjbGFzcz0ic3QwIiBkPSJNMTAgMTBMNy41IDcuNSAxMCA1SDcuNUw1IDcuNXY1TDcuNSAxNUgxMGwtMi41LTIuNXptMi41IDBMMTAgMTIuNWwyLjUgMi41IDIuNS0yLjV2LTVMMTIuNSA1IDEwIDcuNXoiIGZpbGwtcnVsZT0iZXZlbm9kZCIvPiYjeGE7PC9zdmc+;" vertex="1" parent="14">
          <mxGeometry x="68" y="320" width="42" height="42" as="geometry" />
        </mxCell>
        <mxCell id="kObLQWP68G7C41kQOy8n-532" value="报刻单" style="sketch=0;html=1;verticalAlign=top;labelPosition=center;verticalLabelPosition=bottom;align=center;spacingTop=-6;fontSize=11;fontStyle=1;fontColor=#999999;shape=image;aspect=fixed;imageAspect=0;image=data:image/svg+xml,PHN2ZyB4bWxucz0iaHR0cDovL3d3dy53My5vcmcvMjAwMC9zdmciIGlkPSJzdmc1MzkzNyIgdmVyc2lvbj0iMS4xIiB2aWV3Qm94PSIwIDAgMTUxLjQ4MDQ3IDEzMS4zMDQ2OSIgaGVpZ2h0PSIxMzEuMzA0NjltbSIgd2lkdGg9IjE1MS40ODA0N21tIj4mI3hhOyAgJiN4YTsgIDxkZWZzIGlkPSJkZWZzNTM5MzQiLz4mI3hhOyAgPGcgdHJhbnNmb3JtPSJ0cmFuc2xhdGUoLTMwLjc2NzU3OCwtODQuMDg3ODkxKSIgaWQ9ImxheWVyMSI+JiN4YTsgICAgPHBhdGggaWQ9InBhdGg1NDA3OCIgZD0ibSAxMDYuODY1MjMsODQuMDg3ODkxIC03Ni4wOTc2NTIsMTMxLjMwNDY4OSAxMC40NDkyMTksLTAuMDMxMiAxNDEuMDMxMjUzLC0wLjQyOTY5IHogbSAtMC4wMzEyLDIzLjk4NDM3OSA1NC42ODc1LDk0LjkyMTg3IC0xMDkuODk0NTI3LDAuMzM1OTQgeiIgc3R5bGU9ImNvbG9yOiMwMDAwMDA7ZmlsbDojZmViYzAwOy1pbmtzY2FwZS1zdHJva2U6bm9uZSIvPiYjeGE7ICAgIDxwYXRoIGlkPSJwYXRoNTQwODAiIGQ9Im0gMTA2Ljg1NzQyLDEzNC44Mzc4OSAtNjkuOTE0MDYxLDcwLjI5MTAyIDguNTA3ODEzLDguNDYyODkgNjEuMzkwNjI4LC02MS43MjI2NiA2MC43ODEyNSw2MS4zMTgzNiA4LjUyMzQzLC04LjQ0NzI3IHoiIHN0eWxlPSJjb2xvcjojMDAwMDAwO2ZpbGw6I2VmNDczNjstaW5rc2NhcGUtc3Ryb2tlOm5vbmUiLz4mI3hhOyAgICA8cGF0aCBpZD0icGF0aDg3NTk4IiBkPSJtIDE3MS44NjcxOSwyMDIuOTYyODkgLTEzMC42ODc1MDMsMC4zOTg0NCAwLjAzNzExLDEyIDEzMC42ODc1MDMsLTAuMzk4NDQgeiIgc3R5bGU9ImNvbG9yOiMwMDAwMDA7ZmlsbDojMDA4MDAwOy1pbmtzY2FwZS1zdHJva2U6bm9uZSIvPiYjeGE7ICAgIDxwYXRoIGlkPSJwYXRoNzk2NzkiIGQ9Im0gMTA2Ljg0NTcsMTczLjIxMjg5IC02OS44OTY0OTQsMzEuNTA2NzYgLTYuMTgxNjI4LDEwLjY3MjkzIDExLjY4ODY4MSwtMC4wMzEyIDY0LjM5OTIxMSwtMjguOTkyMTkgNjMuNzMxMzgsMjguNTkyNTEgMTEuNjYxMiwtMC4wMyAtNi4xMDE1NywtMTAuNTkzODcgeiIgc3R5bGU9ImNvbG9yOiMwMDAwMDA7b3BhY2l0eToxO2ZpbGw6IzNjODRmODstaW5rc2NhcGUtc3Ryb2tlOm5vbmUiLz4mI3hhOyAgPC9nPiYjeGE7PC9zdmc+;" vertex="1" parent="14">
          <mxGeometry x="142" y="323" width="42" height="36" as="geometry" />
        </mxCell>
        <mxCell id="511" value="单据实体处理逻辑" style="rounded=1;absoluteArcSize=1;arcSize=2;html=1;strokeColor=none;gradientColor=none;shadow=0;dashed=0;strokeColor=none;fontSize=12;fontColor=#9E9E9E;align=left;verticalAlign=top;spacing=10;spacingTop=-4;fillColor=#E1F5FE;" parent="1" vertex="1">
          <mxGeometry x="819" y="240" width="130" height="190" as="geometry" />
        </mxCell>
        <mxCell id="2" value="业务单据流程接口蓝图" style="fillColor=#4DA1F5;strokeColor=none;shadow=1;gradientColor=none;fontSize=14;align=left;spacingLeft=50;fontColor=#ffffff;html=1;" parent="1" vertex="1">
          <mxGeometry x="169" y="40" width="831" height="40" as="geometry" />
        </mxCell>
        <mxCell id="507" style="edgeStyle=orthogonalEdgeStyle;rounded=0;html=1;labelBackgroundColor=none;startArrow=blockThin;startFill=1;endArrow=blockThin;endFill=1;jettySize=auto;orthogonalLoop=1;strokeColor=#4284F3;strokeWidth=2;fontSize=10;fontColor=#999999;align=center;dashed=0;endSize=4;startSize=4;" parent="1" source="495" target="497" edge="1">
          <mxGeometry relative="1" as="geometry" />
        </mxCell>
        <mxCell id="508" style="edgeStyle=orthogonalEdgeStyle;rounded=0;html=1;labelBackgroundColor=none;startArrow=blockThin;startFill=1;endArrow=blockThin;endFill=1;jettySize=auto;orthogonalLoop=1;strokeColor=#4284F3;strokeWidth=2;fontSize=10;fontColor=#999999;align=center;dashed=0;endSize=4;startSize=4;" parent="1" source="495" target="499" edge="1">
          <mxGeometry relative="1" as="geometry" />
        </mxCell>
        <mxCell id="495" value="用户定义" style="strokeColor=#dddddd;fillColor=#ffffff;shadow=1;strokeWidth=1;rounded=1;absoluteArcSize=1;arcSize=2;labelPosition=center;verticalLabelPosition=middle;align=center;verticalAlign=bottom;spacingLeft=0;fontColor=#999999;fontSize=12;whiteSpace=wrap;spacingBottom=2;html=1;" parent="1" vertex="1">
          <mxGeometry x="219" y="287.5" width="70" height="85" as="geometry" />
        </mxCell>
        <mxCell id="496" value="" style="dashed=0;connectable=0;html=1;fillColor=#757575;strokeColor=none;shape=mxgraph.gcp2.laptop;part=1;" parent="495" vertex="1">
          <mxGeometry x="0.5" width="50" height="33" relative="1" as="geometry">
            <mxPoint x="-25" y="18.5" as="offset" />
          </mxGeometry>
        </mxCell>
        <mxCell id="509" style="edgeStyle=orthogonalEdgeStyle;rounded=0;html=1;labelBackgroundColor=none;startArrow=blockThin;startFill=1;endArrow=blockThin;endFill=1;jettySize=auto;orthogonalLoop=1;strokeColor=#4284F3;strokeWidth=2;fontSize=10;fontColor=#999999;align=center;dashed=1;endSize=4;startSize=4;" parent="1" source="497" target="499" edge="1">
          <mxGeometry relative="1" as="geometry" />
        </mxCell>
        <mxCell id="510" style="edgeStyle=orthogonalEdgeStyle;rounded=0;html=1;labelBackgroundColor=none;startArrow=blockThin;startFill=1;endArrow=blockThin;endFill=1;jettySize=auto;orthogonalLoop=1;strokeColor=#4284F3;strokeWidth=2;fontSize=10;fontColor=#999999;align=center;dashed=0;endSize=4;startSize=4;" parent="1" source="497" target="511" edge="1">
          <mxGeometry relative="1" as="geometry">
            <mxPoint x="699" y="270" as="targetPoint" />
            <Array as="points">
              <mxPoint x="729" y="270" />
              <mxPoint x="729" y="270" />
            </Array>
          </mxGeometry>
        </mxCell>
        <mxCell id="514" style="edgeStyle=orthogonalEdgeStyle;rounded=0;html=1;labelBackgroundColor=none;startArrow=blockThin;startFill=1;endArrow=blockThin;endFill=1;jettySize=auto;orthogonalLoop=1;strokeColor=#4284F3;strokeWidth=2;fontSize=10;fontColor=#999999;align=center;dashed=0;endSize=4;startSize=4;" parent="1" source="497" target="501" edge="1">
          <mxGeometry relative="1" as="geometry">
            <Array as="points">
              <mxPoint x="549" y="280" />
              <mxPoint x="549" y="335" />
            </Array>
          </mxGeometry>
        </mxCell>
        <mxCell id="497" value="" style="strokeColor=#dddddd;fillColor=#ffffff;shadow=1;strokeWidth=1;rounded=1;absoluteArcSize=1;arcSize=2;fontSize=10;fontColor=#999999;align=left;html=1;" parent="1" vertex="1">
          <mxGeometry x="359" y="248" width="150" height="44" as="geometry" />
        </mxCell>
        <mxCell id="498" value="ERP接口" style="dashed=0;connectable=0;html=1;fillColor=#757575;strokeColor=none;shape=mxgraph.gcp2.frontend_platform_services;part=1;labelPosition=right;verticalLabelPosition=middle;align=left;verticalAlign=middle;spacingLeft=5;fontColor=#000000;fontSize=12;" parent="497" vertex="1">
          <mxGeometry y="0.5" width="32" height="32" relative="1" as="geometry">
            <mxPoint x="5" y="-16" as="offset" />
          </mxGeometry>
        </mxCell>
        <mxCell id="515" style="edgeStyle=orthogonalEdgeStyle;rounded=0;html=1;labelBackgroundColor=none;startArrow=blockThin;startFill=1;endArrow=blockThin;endFill=1;jettySize=auto;orthogonalLoop=1;strokeColor=#4284F3;strokeWidth=2;fontSize=10;fontColor=#999999;align=center;dashed=0;endSize=4;startSize=4;" parent="1" source="499" target="501" edge="1">
          <mxGeometry relative="1" as="geometry" />
        </mxCell>
        <mxCell id="499" value="" style="strokeColor=#dddddd;fillColor=#ffffff;shadow=1;strokeWidth=1;rounded=1;absoluteArcSize=1;arcSize=2;fontSize=10;fontColor=#999999;align=left;html=1;" parent="1" vertex="1">
          <mxGeometry x="359" y="363" width="150" height="44" as="geometry" />
        </mxCell>
        <mxCell id="500" value="MES接口" style="dashed=0;connectable=0;html=1;fillColor=#757575;strokeColor=none;shape=mxgraph.gcp2.dedicated_game_server;part=1;labelPosition=right;verticalLabelPosition=middle;align=left;verticalAlign=middle;spacingLeft=5;fontColor=#000000;fontSize=12;" parent="499" vertex="1">
          <mxGeometry y="0.5" width="32" height="32" relative="1" as="geometry">
            <mxPoint x="5" y="-16" as="offset" />
          </mxGeometry>
        </mxCell>
        <mxCell id="501" value="" style="strokeColor=#dddddd;fillColor=#ffffff;shadow=1;strokeWidth=1;rounded=1;absoluteArcSize=1;arcSize=2;fontSize=10;fontColor=#999999;align=left;html=1;" parent="1" vertex="1">
          <mxGeometry x="589" y="305" width="170" height="60" as="geometry" />
        </mxCell>
        <mxCell id="502" value="&lt;font color=&quot;#000000&quot;&gt;分析模型&lt;/font&gt;" style="dashed=0;connectable=0;html=1;fillColor=#5184F3;strokeColor=none;shape=mxgraph.gcp2.hexIcon;prIcon=bigquery;part=1;labelPosition=right;verticalLabelPosition=middle;align=left;verticalAlign=middle;spacingLeft=5;fontColor=#999999;fontSize=12;" parent="501" vertex="1">
          <mxGeometry y="0.5" width="44" height="39" relative="1" as="geometry">
            <mxPoint x="5" y="-19.5" as="offset" />
          </mxGeometry>
        </mxCell>
        <mxCell id="503" value="" style="strokeColor=#dddddd;fillColor=#ffffff;shadow=1;strokeWidth=1;rounded=1;absoluteArcSize=1;arcSize=2;fontSize=10;fontColor=#999999;align=left;html=1;" parent="1" vertex="1">
          <mxGeometry x="829" y="270" width="110" height="60" as="geometry" />
        </mxCell>
        <mxCell id="504" value="o数据" style="dashed=0;connectable=0;html=1;fillColor=#5184F3;strokeColor=none;shape=mxgraph.gcp2.hexIcon;prIcon=cloud_sql;part=1;labelPosition=right;verticalLabelPosition=middle;align=left;verticalAlign=middle;spacingLeft=5;fontColor=#999999;fontSize=12;" parent="503" vertex="1">
          <mxGeometry y="0.5" width="44" height="39" relative="1" as="geometry">
            <mxPoint x="5" y="-19.5" as="offset" />
          </mxGeometry>
        </mxCell>
        <mxCell id="505" value="" style="strokeColor=#dddddd;fillColor=#ffffff;shadow=1;strokeWidth=1;rounded=1;absoluteArcSize=1;arcSize=2;fontSize=10;fontColor=#999999;align=left;html=1;" parent="1" vertex="1">
          <mxGeometry x="829" y="355" width="110" height="60" as="geometry" />
        </mxCell>
        <mxCell id="506" value="模型/EXCEL/XML" style="dashed=0;connectable=0;html=1;fillColor=#5184F3;strokeColor=none;shape=mxgraph.gcp2.hexIcon;prIcon=cloud_bigtable;part=1;labelPosition=right;verticalLabelPosition=middle;align=left;verticalAlign=middle;spacingLeft=5;fontColor=#999999;fontSize=12;" parent="505" vertex="1">
          <mxGeometry y="0.5" width="44" height="39" relative="1" as="geometry">
            <mxPoint x="5" y="-19.5" as="offset" />
          </mxGeometry>
        </mxCell>
        <mxCell id="512" style="edgeStyle=orthogonalEdgeStyle;rounded=0;html=1;labelBackgroundColor=none;startArrow=blockThin;startFill=1;endArrow=blockThin;endFill=1;jettySize=auto;orthogonalLoop=1;strokeColor=#4284F3;strokeWidth=2;fontSize=10;fontColor=#999999;align=center;dashed=0;endSize=4;startSize=4;" parent="1" source="511" target="501" edge="1">
          <mxGeometry relative="1" as="geometry" />
        </mxCell>
        <mxCell id="513" style="edgeStyle=orthogonalEdgeStyle;rounded=0;html=1;labelBackgroundColor=none;startArrow=blockThin;startFill=1;endArrow=blockThin;endFill=1;jettySize=auto;orthogonalLoop=1;strokeColor=#4284F3;strokeWidth=2;fontSize=10;fontColor=#999999;align=center;dashed=0;endSize=4;startSize=4;" parent="1" source="511" target="499" edge="1">
          <mxGeometry relative="1" as="geometry">
            <Array as="points">
              <mxPoint x="629" y="400" />
              <mxPoint x="629" y="400" />
            </Array>
          </mxGeometry>
        </mxCell>
        <mxCell id="516" value="or" style="text;html=1;resizable=0;points=[];autosize=1;align=left;verticalAlign=top;spacingTop=-4;fontSize=10;fontColor=#999999;" parent="1" vertex="1">
          <mxGeometry x="869" y="337" width="20" height="10" as="geometry" />
        </mxCell>
        <mxCell id="214JmKYOKVgYCU7KuuMi-516" value="" style="strokeColor=#dddddd;shadow=1;strokeWidth=1;rounded=1;absoluteArcSize=1;arcSize=2;" vertex="1" parent="1">
          <mxGeometry x="90" y="110" width="150" height="60" as="geometry" />
        </mxCell>
        <mxCell id="214JmKYOKVgYCU7KuuMi-517" value="云MES" style="editableCssRules=.*;fontColor=#999999;shape=image;verticalLabelPosition=middle;labelBackgroundColor=#ffffff;verticalAlign=middle;labelPosition=right;align=left;spacingLeft=20;part=1;points=[];imageAspect=0;image=data:image/svg+xml,PHN2ZyB4bWxucz0iaHR0cDovL3d3dy53My5vcmcvMjAwMC9zdmciIHhtbG5zOnY9Imh0dHBzOi8vdmVjdGEuaW8vbmFubyIgd2lkdGg9IjIwIiBoZWlnaHQ9IjIwIiB2aWV3Qm94PSIwIDAgMjAgMjAiPiYjeGE7CTxzdHlsZSB0eXBlPSJ0ZXh0L2NzcyI+JiN4YTsJLnN0MHtmaWxsOiM0Mjg1ZjQ7fSYjeGE7CS5zdDF7ZmlsbDojNjY5ZGY2O30mI3hhOwkuc3Qye2ZpbGw6I2FlY2JmYTt9JiN4YTsJPC9zdHlsZT4mI3hhOwk8cGF0aCBjbGFzcz0ic3QyIiBkPSJNMTQgMGg2djZoLTZ6Ii8+JiN4YTsJPHBhdGggY2xhc3M9InN0MSIgZD0iTTE3IDBoM3Y2aC0zeiIvPiYjeGE7CTxwYXRoIGNsYXNzPSJzdDIiIGQ9Ik0xNCAxNGg2djZoLTZ6Ii8+JiN4YTsJPHBhdGggY2xhc3M9InN0MSIgZD0iTTE3IDE0aDN2NmgtM3oiLz4mI3hhOwk8cGF0aCBjbGFzcz0ic3QyIiBkPSJNMCAwaDZ2NkgweiIvPiYjeGE7CTxwYXRoIGNsYXNzPSJzdDEiIGQ9Ik0zIDBoM3Y2SDN6Ii8+JiN4YTsJPHBhdGggY2xhc3M9InN0MiIgZD0iTTAgMTRoNnY2SDB6Ii8+JiN4YTsJPGcgY2xhc3M9InN0MSI+JiN4YTsJCTxwYXRoIGQ9Ik0zIDE0aDN2Nkgzek02IDJoOHYySDZ6Ii8+JiN4YTsJCTxwYXRoIGQ9Ik02IDE2aDh2Mkg2ek0xNiA2aDJ2OGgtMnpNMiA2aDJ2OEgyeiIvPiYjeGE7CTwvZz4mI3hhOwk8cGF0aCBjbGFzcz0ic3QwIiBkPSJNMiA2aDJ2Mkgyem0xNCAwaDJ2MmgtMnpNNiAyaDJ2Mkg2em0wIDE0aDJ2Mkg2eiIvPiYjeGE7PC9zdmc+;" vertex="1" parent="214JmKYOKVgYCU7KuuMi-516">
          <mxGeometry width="30" height="30" relative="1" as="geometry">
            <mxPoint x="15" y="15" as="offset" />
          </mxGeometry>
        </mxCell>
        <mxCell id="ty_eWqzTZMKwH1FARK6W-517" value="交换数据" style="sketch=0;html=1;verticalAlign=top;labelPosition=center;verticalLabelPosition=bottom;align=center;spacingTop=-6;fontSize=11;fontStyle=1;fontColor=#999999;shape=image;aspect=fixed;imageAspect=0;image=data:image/svg+xml,PHN2ZyB4bWxucz0iaHR0cDovL3d3dy53My5vcmcvMjAwMC9zdmciIGlkPSJzdmczNjAwOCIgdmVyc2lvbj0iMS4xIiB2aWV3Qm94PSIwIDAgMTIxLjI1MDg4IDEwMC4wNjkyMyIgaGVpZ2h0PSIxMDAuMDY5MjNtbSIgd2lkdGg9IjEyMS4yNTA4OG1tIj4mI3hhOyAgJiN4YTsgIDxkZWZzIGlkPSJkZWZzMzYwMDUiLz4mI3hhOyAgPGcgdHJhbnNmb3JtPSJ0cmFuc2xhdGUoLTQ2LjIyMTU4LC05OC4zMzc4OCkiIGlkPSJsYXllcjEiPiYjeGE7ICAgIDxwYXRoIGQ9Im0gNzkuNjMyOTE4LDE0Ni45MDY4OSA2Ljc2MTM0NSw2LjY3NDAxIC0xNC4xNjk0MiwxNC4yODQ0IGggNDcuMDI4OTA3IHYgOS41MDAyIEggNzIuMjI0ODQzIGwgMTQuMjA4NjkyLDE0LjMzNjU5IC02LjczMDMzOSw2LjcwNTAyIC0yNS41NjYzOTQsLTI1LjY2NDA3IHogbSA2Mi4zNDM0MzIsLTIzLjcxOTU4IC02Ljc2MTM1LDYuNjc0MDEgMTQuMTY5NDIsMTQuMjg0NCBoIC00Ny4wMjg5MSB2IDkuNTAwMTkgaCA0Ny4wMjg5MSBsIC0xNC4yMDg2OSwxNC4zMzY2IDYuNzMwMzMsNi43MDUwMiAyNS41NjY0LC0yNS42NjQwNyB6IiBzdHlsZT0iY29sb3I6IzAwMDAwMDtvcGFjaXR5OjE7ZmlsbDojNDI4NWY0O2ZpbGwtb3BhY2l0eToxO3N0cm9rZS13aWR0aDoxOy1pbmtzY2FwZS1zdHJva2U6bm9uZSIgaWQ9InBhdGgzNjE0Mi02Ii8+JiN4YTsgICAgPHBhdGggaWQ9InBhdGgzNjE0NiIgZD0ibSAxMDUuMzM1OTQsOTguMzM3ODkxIGMgLTExLjEyNjE1NywtMC4wMDg1IC0xOS43MDYxNTEsNC45OTk5MjkgLTI1LjQ3ODUxOCwxMS4xNTQyOTkgLTQuODYwMjQ5LDUuMTgxODkgLTcuODUwMDUzLDExLjAzNjc3IC05LjY2MDE1NiwxNS45OTIxOSAtNy45MTYyNCwxLjUyOTA1IC0xNC45NzI2NTksNS44MzI0NCAtMTkuMDk5NjEsMTIuMTAxNTYgbCAtMC4wODIwMywwLjEyNSAtMC4wNzQyMiwwLjEyODkgYyAtMy44NTQxNTcsNi43NDA3NCAtNS4wNjQ5NTksMTIuNDUwODYgLTQuNjM4NjcyLDE3LjI5MTAyIDAuMjM0MDk5LDIuNjU4MDIgMC44OTI4Nyw0Ljk0NSAxLjYyNTExOCw2Ljk0OTk5IGwgNy45ODk2ODcsLTYuNjU1NTggYyAtMC4wNjcxMiwtMC4zNzM1IC0wLjExODQ2OCwtMC43NDg2NSAtMC4xNTE5MTQsLTEuMTI4NCAtMC4yNDI0LC0yLjc1MjI5IDAuMjUzNjU4LC02LjExNTY3IDMuMzMwMDc4LC0xMS41NTY2NCAyLjgwMDQzMiwtNC4xODk2NSA4Ljg1Mjc1NiwtNy44NjkzMyAxNS4xMDM1MTYsLTguNDIxODcgbCAzLjIwODk4NCwtMC4yODMyIDAuOTIzODI4LC0zLjA4NTk0IGMgMS4yNTQ5ODEsLTQuMTkwMDIgNC4wNDA3NTksLTEwLjI1NDYyIDguNDUzMTI1LC0xNC45NTg5OSA0LjQxMjM2NiwtNC43MDQzNiAxMC4xNzYxMywtOC4xNTg3NSAxOC41NTA3ODQsLTguMTUyMzQgeiIgc3R5bGU9ImNvbG9yOiMwMDAwMDA7b3BhY2l0eToxO2ZpbGw6I2FlY2JmYTtmaWxsLW9wYWNpdHk6MTstaW5rc2NhcGUtc3Ryb2tlOm5vbmUiLz4mI3hhOyAgICA8cGF0aCBpZD0icGF0aDM2MTQ4IiBkPSJtIDEwNS4zMzU5NCw5OC4zMzc4OTEgdiA5LjQ5OTk5OSBjIDkuNDA2OTksMCAxNi40NDYyOSwzLjY2MzUyIDIzLjU2OTA1LDEzLjkzMDExIGwgNi45OTQyOCwtNi41MzY0NSBDIDEyNy42MDIxOCwxMDMuOTc3ODYgMTE3LjE5MzcxLDk4LjMzNzg5MSAxMDUuMzM1OTQsOTguMzM3ODkxIFoiIHN0eWxlPSJjb2xvcjojMDAwMDAwO29wYWNpdHk6MTtmaWxsOiM2NjlkZjY7ZmlsbC1vcGFjaXR5OjE7LWlua3NjYXBlLXN0cm9rZTpub25lIi8+JiN4YTsgIDwvZz4mI3hhOzwvc3ZnPg==;" vertex="1" parent="1">
          <mxGeometry x="289" y="113.5" width="42" height="35" as="geometry" />
        </mxCell>
        <mxCell id="ty_eWqzTZMKwH1FARK6W-530" value="" style="shape=mxgraph.gcp2.doubleRect;strokeColor=#dddddd;shadow=1;strokeWidth=1;rounded=1;absoluteArcSize=1;arcSize=2;" vertex="1" parent="1">
          <mxGeometry x="390" y="113.5" width="138" height="68" as="geometry" />
        </mxCell>
        <mxCell id="ty_eWqzTZMKwH1FARK6W-531" value="&lt;font color=&quot;#000000&quot;&gt;ERP&lt;/font&gt;" style="editableCssRules=.*;html=1;fontColor=#999999;shape=image;verticalLabelPosition=middle;labelBackgroundColor=#ffffff;verticalAlign=middle;labelPosition=right;align=left;spacingLeft=20;part=1;points=[];imageAspect=0;image=data:image/svg+xml,PHN2ZyB4bWxucz0iaHR0cDovL3d3dy53My5vcmcvMjAwMC9zdmciIHhtbG5zOnY9Imh0dHBzOi8vdmVjdGEuaW8vbmFubyIgd2lkdGg9IjMwIiBoZWlnaHQ9IjIxIiB2aWV3Qm94PSIwIDAgMzAgMjEiPiYjeGE7CTxzdHlsZSB0eXBlPSJ0ZXh0L2NzcyI+JiN4YTsJLnN0MHtmaWxsOiM0Mjg1ZjQ7fSYjeGE7CS5zdDF7ZmlsbDojNjY5ZGY2O30mI3hhOwkuc3Qye2ZpbGw6I2FlY2JmYTt9JiN4YTsJLnN0M3tmaWxsOiNmZmY7fSYjeGE7CTwvc3R5bGU+JiN4YTsJPHBhdGggZD0iTTAgMGwxLjUgMS41aDZMOSAweiIgY2xhc3M9InN0MiIvPiYjeGE7CTxwYXRoIGQ9Ik05IDlWMEw3LjUgMS41djZ6IiBjbGFzcz0ic3QxIi8+JiN4YTsJPHBhdGggZD0iTTAgOWwxLjUtMS41di02TDAgMHoiIGNsYXNzPSJzdDIiLz4mI3hhOwk8cGF0aCBkPSJNOSA5TDcuNSA3LjVoLTZMMCA5eiIgY2xhc3M9InN0MCIvPiYjeGE7CTxwYXRoIGQ9Ik0xLjUgMS41aDZ2NmgtNnoiIGNsYXNzPSJzdDIiLz4mI3hhOwk8cGF0aCBkPSJNMTAuNSAwTDEyIDEuNWg2TDE5LjUgMHoiIGNsYXNzPSJzdDAiLz4mI3hhOwk8cGF0aCBkPSJNMTkuNSA5VjBMMTggMS41djZ6IiBjbGFzcz0ic3QxIi8+JiN4YTsJPHBhdGggZD0iTTEwLjUgOUwxMiA3LjV2LTZMMTAuNSAweiIgY2xhc3M9InN0MCIvPiYjeGE7CTxwYXRoIGQ9Ik0xOS41IDlMMTggNy41aC02TDEwLjUgOXoiIGNsYXNzPSJzdDEiLz4mI3hhOwk8cGF0aCBkPSJNMTIgMS41aDZ2NmgtNnoiIGNsYXNzPSJzdDMiLz4mI3hhOwk8cGF0aCBkPSJNMjEgMGwxLjUgMS41aDZMMzAgMHoiIGNsYXNzPSJzdDAiLz4mI3hhOwk8cGF0aCBkPSJNMzAgOVYwbC0xLjUgMS41djZ6IiBjbGFzcz0ic3QxIi8+JiN4YTsJPHBhdGggZD0iTTIxIDlsMS41LTEuNXYtNkwyMSAweiIgY2xhc3M9InN0MCIvPiYjeGE7CTxwYXRoIGQ9Ik0zMCA5bC0xLjUtMS41aC02TDIxIDl6IiBjbGFzcz0ic3QxIi8+JiN4YTsJPHBhdGggZD0iTTIyLjUgMS41aDZ2NmgtNnoiIGNsYXNzPSJzdDMiLz4mI3hhOwk8cGF0aCBkPSJNMCAxMmwxLjUgMS41aDZMOSAxMnoiIGNsYXNzPSJzdDAiLz4mI3hhOwk8cGF0aCBkPSJNOSAyMXYtOWwtMS41IDEuNXY2eiIgY2xhc3M9InN0MSIvPiYjeGE7CTxwYXRoIGQ9Ik0wIDIxbDEuNS0xLjV2LTZMMCAxMnoiIGNsYXNzPSJzdDAiLz4mI3hhOwk8cGF0aCBkPSJNOSAyMWwtMS41LTEuNWgtNkwwIDIxeiIgY2xhc3M9InN0MSIvPiYjeGE7CTxwYXRoIGQ9Ik0xLjUgMTMuNWg2djZoLTZ6IiBjbGFzcz0ic3QzIi8+JiN4YTsJPHBhdGggZD0iTTEwLjUgMTJsMS41IDEuNWg2bDEuNS0xLjV6IiBjbGFzcz0ic3QyIi8+JiN4YTsJPHBhdGggZD0iTTE5LjUgMjF2LTlMMTggMTMuNXY2eiIgY2xhc3M9InN0MSIvPiYjeGE7CTxwYXRoIGQ9Ik0xMC41IDIxbDEuNS0xLjV2LTZMMTAuNSAxMnoiIGNsYXNzPSJzdDIiLz4mI3hhOwk8cGF0aCBkPSJNMTkuNSAyMUwxOCAxOS41aC02TDEwLjUgMjF6IiBjbGFzcz0ic3QwIi8+JiN4YTsJPHBhdGggZD0iTTEyIDEzLjVoNnY2aC02em05LTEuNWwxLjUgMS41aDZMMzAgMTJ6IiBjbGFzcz0ic3QyIi8+JiN4YTsJPHBhdGggZD0iTTMwIDIxdi05bC0xLjUgMS41djZ6IiBjbGFzcz0ic3QxIi8+JiN4YTsJPHBhdGggZD0iTTIxIDIxbDEuNS0xLjV2LTZMMjEgMTJ6IiBjbGFzcz0ic3QyIi8+JiN4YTsJPHBhdGggZD0iTTMwIDIxbC0xLjUtMS41aC02TDIxIDIxeiIgY2xhc3M9InN0MCIvPiYjeGE7CTxwYXRoIGQ9Ik0yMi41IDEzLjVoNnY2aC02eiIgY2xhc3M9InN0MiIvPiYjeGE7PC9zdmc+;" vertex="1" parent="ty_eWqzTZMKwH1FARK6W-530">
          <mxGeometry width="30" height="21" relative="1" as="geometry">
            <mxPoint x="15" y="19" as="offset" />
          </mxGeometry>
        </mxCell>
        <mxCell id="kObLQWP68G7C41kQOy8n-522" value="" style="edgeStyle=orthogonalEdgeStyle;rounded=0;orthogonalLoop=1;jettySize=auto;html=1;dashed=1;fillColor=#1ba1e2;strokeColor=#4284F3;strokeWidth=2;" edge="1" parent="1" source="kObLQWP68G7C41kQOy8n-521" target="501">
          <mxGeometry relative="1" as="geometry" />
        </mxCell>
        <mxCell id="kObLQWP68G7C41kQOy8n-526" value="" style="edgeStyle=orthogonalEdgeStyle;rounded=0;orthogonalLoop=1;jettySize=auto;html=1;dashed=1;fillColor=#1ba1e2;strokeColor=#4284F3;strokeWidth=2;" edge="1" parent="1" source="kObLQWP68G7C41kQOy8n-523" target="501">
          <mxGeometry relative="1" as="geometry" />
        </mxCell>
        <mxCell id="kObLQWP68G7C41kQOy8n-528" style="edgeStyle=orthogonalEdgeStyle;rounded=0;orthogonalLoop=1;jettySize=auto;html=1;dashed=1;fillColor=#1ba1e2;strokeColor=#4284F3;strokeWidth=2;" edge="1" parent="1" source="kObLQWP68G7C41kQOy8n-525" target="501">
          <mxGeometry relative="1" as="geometry" />
        </mxCell>
        <mxCell id="kObLQWP68G7C41kQOy8n-527" style="edgeStyle=orthogonalEdgeStyle;rounded=0;orthogonalLoop=1;jettySize=auto;html=1;dashed=1;entryX=0.5;entryY=0;entryDx=0;entryDy=0;" edge="1" parent="1" source="kObLQWP68G7C41kQOy8n-524" target="501">
          <mxGeometry relative="1" as="geometry" />
        </mxCell>
        <mxCell id="kObLQWP68G7C41kQOy8n-529" style="edgeStyle=orthogonalEdgeStyle;rounded=0;orthogonalLoop=1;jettySize=auto;html=1;entryX=0.5;entryY=0;entryDx=0;entryDy=0;dashed=1;fillColor=#1ba1e2;strokeColor=#4284F3;strokeWidth=2;" edge="1" parent="1" source="kObLQWP68G7C41kQOy8n-524" target="501">
          <mxGeometry relative="1" as="geometry" />
        </mxCell>
        <mxCell id="kObLQWP68G7C41kQOy8n-531" value="Data Transfer" style="sketch=0;html=1;verticalAlign=top;labelPosition=center;verticalLabelPosition=bottom;align=center;spacingTop=-6;fontSize=11;fontStyle=1;fontColor=#999999;shape=image;aspect=fixed;imageAspect=0;image=data:image/svg+xml,PHN2ZyB4bWxucz0iaHR0cDovL3d3dy53My5vcmcvMjAwMC9zdmciIGlkPSJzdmczNjAwOCIgdmVyc2lvbj0iMS4xIiB2aWV3Qm94PSIwIDAgMTIxLjI1MDg4IDEwMC4wNjkyMyIgaGVpZ2h0PSIxMDAuMDY5MjNtbSIgd2lkdGg9IjEyMS4yNTA4OG1tIj4mI3hhOyAgJiN4YTsgIDxkZWZzIGlkPSJkZWZzMzYwMDUiLz4mI3hhOyAgPGcgdHJhbnNmb3JtPSJ0cmFuc2xhdGUoLTQ2LjIyMTU4LC05OC4zMzc4OCkiIGlkPSJsYXllcjEiPiYjeGE7ICAgIDxwYXRoIGQ9Im0gNzkuNjMyOTE4LDE0Ni45MDY4OSA2Ljc2MTM0NSw2LjY3NDAxIC0xNC4xNjk0MiwxNC4yODQ0IGggNDcuMDI4OTA3IHYgOS41MDAyIEggNzIuMjI0ODQzIGwgMTQuMjA4NjkyLDE0LjMzNjU5IC02LjczMDMzOSw2LjcwNTAyIC0yNS41NjYzOTQsLTI1LjY2NDA3IHogbSA2Mi4zNDM0MzIsLTIzLjcxOTU4IC02Ljc2MTM1LDYuNjc0MDEgMTQuMTY5NDIsMTQuMjg0NCBoIC00Ny4wMjg5MSB2IDkuNTAwMTkgaCA0Ny4wMjg5MSBsIC0xNC4yMDg2OSwxNC4zMzY2IDYuNzMwMzMsNi43MDUwMiAyNS41NjY0LC0yNS42NjQwNyB6IiBzdHlsZT0iY29sb3I6IzAwMDAwMDtvcGFjaXR5OjE7ZmlsbDojNDI4NWY0O2ZpbGwtb3BhY2l0eToxO3N0cm9rZS13aWR0aDoxOy1pbmtzY2FwZS1zdHJva2U6bm9uZSIgaWQ9InBhdGgzNjE0Mi02Ii8+JiN4YTsgICAgPHBhdGggaWQ9InBhdGgzNjE0NiIgZD0ibSAxMDUuMzM1OTQsOTguMzM3ODkxIGMgLTExLjEyNjE1NywtMC4wMDg1IC0xOS43MDYxNTEsNC45OTk5MjkgLTI1LjQ3ODUxOCwxMS4xNTQyOTkgLTQuODYwMjQ5LDUuMTgxODkgLTcuODUwMDUzLDExLjAzNjc3IC05LjY2MDE1NiwxNS45OTIxOSAtNy45MTYyNCwxLjUyOTA1IC0xNC45NzI2NTksNS44MzI0NCAtMTkuMDk5NjEsMTIuMTAxNTYgbCAtMC4wODIwMywwLjEyNSAtMC4wNzQyMiwwLjEyODkgYyAtMy44NTQxNTcsNi43NDA3NCAtNS4wNjQ5NTksMTIuNDUwODYgLTQuNjM4NjcyLDE3LjI5MTAyIDAuMjM0MDk5LDIuNjU4MDIgMC44OTI4Nyw0Ljk0NSAxLjYyNTExOCw2Ljk0OTk5IGwgNy45ODk2ODcsLTYuNjU1NTggYyAtMC4wNjcxMiwtMC4zNzM1IC0wLjExODQ2OCwtMC43NDg2NSAtMC4xNTE5MTQsLTEuMTI4NCAtMC4yNDI0LC0yLjc1MjI5IDAuMjUzNjU4LC02LjExNTY3IDMuMzMwMDc4LC0xMS41NTY2NCAyLjgwMDQzMiwtNC4xODk2NSA4Ljg1Mjc1NiwtNy44NjkzMyAxNS4xMDM1MTYsLTguNDIxODcgbCAzLjIwODk4NCwtMC4yODMyIDAuOTIzODI4LC0zLjA4NTk0IGMgMS4yNTQ5ODEsLTQuMTkwMDIgNC4wNDA3NTksLTEwLjI1NDYyIDguNDUzMTI1LC0xNC45NTg5OSA0LjQxMjM2NiwtNC43MDQzNiAxMC4xNzYxMywtOC4xNTg3NSAxOC41NTA3ODQsLTguMTUyMzQgeiIgc3R5bGU9ImNvbG9yOiMwMDAwMDA7b3BhY2l0eToxO2ZpbGw6I2FlY2JmYTtmaWxsLW9wYWNpdHk6MTstaW5rc2NhcGUtc3Ryb2tlOm5vbmUiLz4mI3hhOyAgICA8cGF0aCBpZD0icGF0aDM2MTQ4IiBkPSJtIDEwNS4zMzU5NCw5OC4zMzc4OTEgdiA5LjQ5OTk5OSBjIDkuNDA2OTksMCAxNi40NDYyOSwzLjY2MzUyIDIzLjU2OTA1LDEzLjkzMDExIGwgNi45OTQyOCwtNi41MzY0NSBDIDEyNy42MDIxOCwxMDMuOTc3ODYgMTE3LjE5MzcxLDk4LjMzNzg5MSAxMDUuMzM1OTQsOTguMzM3ODkxIFoiIHN0eWxlPSJjb2xvcjojMDAwMDAwO29wYWNpdHk6MTtmaWxsOiM2NjlkZjY7ZmlsbC1vcGFjaXR5OjE7LWlua3NjYXBlLXN0cm9rZTpub25lIi8+JiN4YTsgIDwvZz4mI3hhOzwvc3ZnPg==;" vertex="1" parent="1">
          <mxGeometry x="413" y="305" width="42" height="35" as="geometry" />
        </mxCell>
        <mxCell id="kObLQWP68G7C41kQOy8n-535" style="edgeStyle=orthogonalEdgeStyle;rounded=0;orthogonalLoop=1;jettySize=auto;html=1;entryX=0.5;entryY=1;entryDx=0;entryDy=0;dashed=1;fillColor=#1ba1e2;strokeColor=#4284F3;strokeWidth=2;" edge="1" parent="1" source="kObLQWP68G7C41kQOy8n-532" target="501">
          <mxGeometry relative="1" as="geometry" />
        </mxCell>
        <mxCell id="kObLQWP68G7C41kQOy8n-539" style="edgeStyle=orthogonalEdgeStyle;rounded=0;orthogonalLoop=1;jettySize=auto;html=1;entryX=0.5;entryY=1;entryDx=0;entryDy=0;dashed=1;strokeWidth=2;startArrow=none;startFill=0;fillColor=#1ba1e2;strokeColor=#4284F3;" edge="1" parent="1" source="kObLQWP68G7C41kQOy8n-530" target="501">
          <mxGeometry relative="1" as="geometry" />
        </mxCell>
      </root>
    </mxGraphModel>
  </diagram>
  <diagram id="0k6YoyDAZz62mgw8UASi" name="第 2 页">
    <mxGraphModel dx="1050" dy="485" grid="1" gridSize="10" guides="1" tooltips="1" connect="1" arrows="1" fold="1" page="1" pageScale="1" pageWidth="827" pageHeight="1169" math="0" shadow="0">
      <root>
        <mxCell id="0" />
        <mxCell id="1" parent="0" />
        <mxCell id="3brsoLXbEhvYtzffg3Bt-1" value="&lt;b&gt;盛友集成平台&lt;/b&gt;" style="fillColor=#F6F6F6;strokeColor=none;shadow=0;gradientColor=none;fontSize=14;align=left;spacing=10;fontColor=#717171;9E9E9E;verticalAlign=top;spacingTop=-4;fontStyle=0;spacingLeft=40;html=1;" vertex="1" parent="1">
          <mxGeometry x="420" y="99" width="400" height="331" as="geometry" />
        </mxCell>
        <mxCell id="3brsoLXbEhvYtzffg3Bt-2" value="" style="shape=mxgraph.gcp2.google_cloud_platform;fillColor=#F6F6F6;strokeColor=none;shadow=0;gradientColor=none;" vertex="1" parent="3brsoLXbEhvYtzffg3Bt-1">
          <mxGeometry width="23" height="20" relative="1" as="geometry">
            <mxPoint x="20" y="10" as="offset" />
          </mxGeometry>
        </mxCell>
        <mxCell id="3brsoLXbEhvYtzffg3Bt-3" value="ERP/OA/MES" style="rounded=1;absoluteArcSize=1;arcSize=2;html=1;strokeColor=none;gradientColor=none;shadow=0;dashed=0;fontSize=12;fontColor=#9E9E9E;align=left;verticalAlign=top;spacing=10;spacingTop=-4;fillColor=#F1F8E9;" vertex="1" parent="1">
          <mxGeometry x="310" y="140" width="90" height="230" as="geometry" />
        </mxCell>
        <mxCell id="3brsoLXbEhvYtzffg3Bt-4" value="主数据管理" style="fillColor=#4DA1F5;strokeColor=none;shadow=1;gradientColor=none;fontSize=14;align=left;spacingLeft=50;fontColor=#ffffff;html=1;" vertex="1" parent="1">
          <mxGeometry x="260" y="40" width="650" height="40" as="geometry" />
        </mxCell>
        <mxCell id="3brsoLXbEhvYtzffg3Bt-5" style="edgeStyle=orthogonalEdgeStyle;rounded=0;elbow=vertical;html=1;labelBackgroundColor=none;startFill=1;endArrow=blockThin;endFill=1;jettySize=auto;orthogonalLoop=1;strokeColor=#4284F3;strokeWidth=2;fontSize=12;fontColor=#000000;align=left;dashed=0;" edge="1" parent="1" source="3brsoLXbEhvYtzffg3Bt-3" target="3brsoLXbEhvYtzffg3Bt-15">
          <mxGeometry relative="1" as="geometry">
            <Array as="points">
              <mxPoint x="600" y="255" />
              <mxPoint x="600" y="175" />
            </Array>
          </mxGeometry>
        </mxCell>
        <mxCell id="3brsoLXbEhvYtzffg3Bt-6" value="" style="strokeColor=#dddddd;fillColor=#ffffff;shadow=1;strokeWidth=1;rounded=1;absoluteArcSize=1;arcSize=2;labelPosition=center;verticalLabelPosition=middle;align=center;verticalAlign=bottom;spacingLeft=0;fontColor=#999999;fontSize=12;whiteSpace=wrap;spacingBottom=2;html=1;" vertex="1" parent="1">
          <mxGeometry x="320" y="200" width="70" height="70" as="geometry" />
        </mxCell>
        <mxCell id="3brsoLXbEhvYtzffg3Bt-7" value="" style="dashed=0;connectable=0;html=1;fillColor=#757575;strokeColor=none;shape=mxgraph.gcp2.mobile_devices;part=1;" vertex="1" parent="3brsoLXbEhvYtzffg3Bt-6">
          <mxGeometry x="0.5" width="50" height="36.5" relative="1" as="geometry">
            <mxPoint x="-25" y="16.75" as="offset" />
          </mxGeometry>
        </mxCell>
        <mxCell id="3brsoLXbEhvYtzffg3Bt-8" style="edgeStyle=elbowEdgeStyle;rounded=0;elbow=vertical;html=1;labelBackgroundColor=none;startFill=1;startSize=4;endArrow=blockThin;endFill=1;endSize=4;jettySize=auto;orthogonalLoop=1;strokeColor=#4284F3;strokeWidth=2;fontSize=12;fontColor=#000000;align=left;dashed=0;" edge="1" parent="1" source="3brsoLXbEhvYtzffg3Bt-3" target="3brsoLXbEhvYtzffg3Bt-13">
          <mxGeometry relative="1" as="geometry" />
        </mxCell>
        <mxCell id="3brsoLXbEhvYtzffg3Bt-9" value="" style="strokeColor=#dddddd;fillColor=#ffffff;shadow=1;strokeWidth=1;rounded=1;absoluteArcSize=1;arcSize=2;labelPosition=center;verticalLabelPosition=middle;align=center;verticalAlign=bottom;spacingLeft=0;fontColor=#999999;fontSize=12;whiteSpace=wrap;spacingBottom=2;html=1;" vertex="1" parent="1">
          <mxGeometry x="320" y="289.5" width="70" height="70" as="geometry" />
        </mxCell>
        <mxCell id="3brsoLXbEhvYtzffg3Bt-10" value="" style="dashed=0;connectable=0;html=1;fillColor=#757575;strokeColor=none;shape=mxgraph.gcp2.laptop;part=1;" vertex="1" parent="3brsoLXbEhvYtzffg3Bt-9">
          <mxGeometry x="0.5" width="50" height="33" relative="1" as="geometry">
            <mxPoint x="-25" y="18.5" as="offset" />
          </mxGeometry>
        </mxCell>
        <mxCell id="3brsoLXbEhvYtzffg3Bt-11" style="edgeStyle=orthogonalEdgeStyle;rounded=0;elbow=vertical;html=1;labelBackgroundColor=none;startFill=1;startSize=4;endArrow=blockThin;endFill=1;endSize=4;jettySize=auto;orthogonalLoop=1;strokeColor=#4284F3;strokeWidth=2;fontSize=12;fontColor=#000000;align=left;dashed=0;" edge="1" parent="1" source="3brsoLXbEhvYtzffg3Bt-13" target="3brsoLXbEhvYtzffg3Bt-17">
          <mxGeometry relative="1" as="geometry" />
        </mxCell>
        <mxCell id="3brsoLXbEhvYtzffg3Bt-12" style="edgeStyle=orthogonalEdgeStyle;rounded=0;elbow=vertical;html=1;labelBackgroundColor=none;startFill=1;startSize=4;endArrow=blockThin;endFill=1;endSize=4;jettySize=auto;orthogonalLoop=1;strokeColor=#4284F3;strokeWidth=2;fontSize=12;fontColor=#000000;align=left;dashed=0;" edge="1" parent="1" source="3brsoLXbEhvYtzffg3Bt-13" target="3brsoLXbEhvYtzffg3Bt-19">
          <mxGeometry relative="1" as="geometry" />
        </mxCell>
        <mxCell id="3brsoLXbEhvYtzffg3Bt-13" value="" style="strokeColor=#dddddd;fillColor=#ffffff;shadow=1;strokeWidth=1;rounded=1;absoluteArcSize=1;arcSize=2;fontSize=11;fontColor=#9E9E9E;align=center;html=1;" vertex="1" parent="1">
          <mxGeometry x="440" y="294.5" width="130" height="60" as="geometry" />
        </mxCell>
        <mxCell id="3brsoLXbEhvYtzffg3Bt-14" value="组织架构" style="dashed=0;connectable=0;html=1;fillColor=#5184F3;strokeColor=none;shape=mxgraph.gcp2.hexIcon;prIcon=cloud_load_balancing;part=1;labelPosition=right;verticalLabelPosition=middle;align=left;verticalAlign=middle;spacingLeft=5;fontColor=#999999;fontSize=12;" vertex="1" parent="3brsoLXbEhvYtzffg3Bt-13">
          <mxGeometry y="0.5" width="44" height="39" relative="1" as="geometry">
            <mxPoint x="5" y="-19.5" as="offset" />
          </mxGeometry>
        </mxCell>
        <mxCell id="3brsoLXbEhvYtzffg3Bt-15" value="" style="strokeColor=#dddddd;fillColor=#ffffff;shadow=1;strokeWidth=1;rounded=1;absoluteArcSize=1;arcSize=2;fontSize=11;fontColor=#9E9E9E;align=center;html=1;" vertex="1" parent="1">
          <mxGeometry x="630" y="140" width="170" height="70" as="geometry" />
        </mxCell>
        <mxCell id="3brsoLXbEhvYtzffg3Bt-16" value="&lt;font color=&quot;#000000&quot;&gt;API&lt;/font&gt;&lt;br&gt;无数据&lt;hr&gt;&lt;font style=&quot;font-size: 11px&quot;&gt;Cloud Endpoints&lt;/font&gt;" style="dashed=0;connectable=0;html=1;fillColor=#5184F3;strokeColor=none;shape=mxgraph.gcp2.hexIcon;prIcon=app_engine;part=1;labelPosition=right;verticalLabelPosition=middle;align=left;verticalAlign=top;spacingLeft=5;fontColor=#999999;fontSize=12;spacingTop=-8;" vertex="1" parent="3brsoLXbEhvYtzffg3Bt-15">
          <mxGeometry width="44" height="39" relative="1" as="geometry">
            <mxPoint x="5" y="7" as="offset" />
          </mxGeometry>
        </mxCell>
        <mxCell id="3brsoLXbEhvYtzffg3Bt-17" value="" style="strokeColor=#dddddd;fillColor=#ffffff;shadow=1;strokeWidth=1;rounded=1;absoluteArcSize=1;arcSize=2;fontSize=11;fontColor=#9E9E9E;align=center;html=1;" vertex="1" parent="1">
          <mxGeometry x="630" y="240" width="170" height="70" as="geometry" />
        </mxCell>
        <mxCell id="3brsoLXbEhvYtzffg3Bt-18" value="&lt;font color=&quot;#000000&quot;&gt;API&lt;/font&gt;&lt;br&gt;组织结构&lt;hr&gt;&lt;span style=&quot;font-size: 11px;&quot;&gt;原生系统&lt;/span&gt;" style="dashed=0;connectable=0;html=1;fillColor=#5184F3;strokeColor=none;shape=mxgraph.gcp2.hexIcon;prIcon=compute_engine;part=1;labelPosition=right;verticalLabelPosition=middle;align=left;verticalAlign=top;spacingLeft=5;fontColor=#999999;fontSize=12;spacingTop=-8;" vertex="1" parent="3brsoLXbEhvYtzffg3Bt-17">
          <mxGeometry width="44" height="39" relative="1" as="geometry">
            <mxPoint x="5" y="7" as="offset" />
          </mxGeometry>
        </mxCell>
        <mxCell id="3brsoLXbEhvYtzffg3Bt-19" value="" style="strokeColor=#dddddd;fillColor=#ffffff;shadow=1;strokeWidth=1;rounded=1;absoluteArcSize=1;arcSize=2;fontSize=11;fontColor=#9E9E9E;align=center;html=1;" vertex="1" parent="1">
          <mxGeometry x="630" y="340" width="170" height="70" as="geometry" />
        </mxCell>
        <mxCell id="3brsoLXbEhvYtzffg3Bt-20" value="&lt;font color=&quot;#000000&quot;&gt;API&lt;/font&gt;&lt;br&gt;人员档案&lt;hr&gt;&lt;span style=&quot;font-size: 11px;&quot;&gt;对照转换接口&lt;/span&gt;" style="dashed=0;connectable=0;html=1;fillColor=#5184F3;strokeColor=none;shape=mxgraph.gcp2.hexIcon;prIcon=container_engine;part=1;labelPosition=right;verticalLabelPosition=middle;align=left;verticalAlign=top;spacingLeft=5;fontColor=#999999;fontSize=12;spacingTop=-8;" vertex="1" parent="3brsoLXbEhvYtzffg3Bt-19">
          <mxGeometry width="44" height="39" relative="1" as="geometry">
            <mxPoint x="5" y="7" as="offset" />
          </mxGeometry>
        </mxCell>
      </root>
    </mxGraphModel>
  </diagram>
</mxfile>
